<svg width="79" height="79" viewBox="0 0 79 79" fill="none" xmlns="http://www.w3.org/2000/svg">
<g clip-path="url(#clip0_2_10)">
<path d="M58.717 19.5723C63.9079 24.7632 66.8241 31.8036 66.8241 39.1447C66.8241 46.4857 63.9079 53.5261 58.717 58.717C53.5261 63.9079 46.4857 66.8241 39.1447 66.8241C31.8036 66.8241 24.7632 63.9079 19.5723 58.717C14.3814 53.5261 11.4652 46.4857 11.4652 39.1447C11.4652 31.8036 14.3814 24.7632 19.5723 19.5723C24.7632 14.3814 31.8036 11.4652 39.1447 11.4652C46.4857 11.4652 53.5261 14.3814 58.717 19.5723ZM51.1303 40.8744C51.3599 40.8784 51.5881 40.8366 51.8015 40.7514C52.0148 40.6663 52.2091 40.5395 52.3729 40.3785C52.5368 40.2175 52.6669 40.0255 52.7557 39.8136C52.8445 39.6018 52.8903 39.3744 52.8903 39.1447C52.8903 38.915 52.8445 38.6875 52.7557 38.4757C52.6669 38.2638 52.5368 38.0718 52.3729 37.9108C52.2091 37.7498 52.0148 37.623 51.8015 37.5379C51.5881 37.4528 51.3599 37.411 51.1303 37.415L31.0882 37.415L37.8602 30.6429C38.1847 30.3185 38.3669 29.8785 38.3669 29.4197C38.3669 28.9608 38.1847 28.5208 37.8602 28.1964C37.5358 27.872 37.0958 27.6897 36.637 27.6897C36.1781 27.6897 35.7381 27.872 35.4137 28.1964L25.6887 37.9214C25.3643 38.2458 25.182 38.6858 25.182 39.1447C25.182 39.6035 25.3643 40.0435 25.6887 40.3679L35.4137 50.0929C35.7381 50.4174 36.1781 50.5996 36.637 50.5996C37.0958 50.5996 37.5358 50.4174 37.8602 50.0929C38.1847 49.7685 38.3669 49.3285 38.3669 48.8697C38.3669 48.4108 38.1847 47.9708 37.8602 47.6464L31.0882 40.8744L51.1303 40.8744Z" fill="#22AE8A"/>
</g>
<defs>
<clipPath id="clip0_2_10">
<rect width="55.3589" height="55.3589" fill="white" transform="translate(0 39.1447) rotate(-45)"/>
</clipPath>
</defs>
</svg>
