<svg width="1440" height="278" viewBox="0 0 1440 278" fill="none" xmlns="http://www.w3.org/2000/svg">
<path d="M1427.46 39.7181C1807.29 6.88825 1959.41 128.799 1988 193.858L1970.6 350H-32.2887C-83.0393 238.565 -163.039 12.7936 -77.0321 1.18308C30.4763 -13.3301 123.07 109.281 495.932 171.838C868.794 234.395 952.688 80.7554 1427.46 39.7181Z" fill="#F08037"/>
<path d="M1126.5 92C1432.1 59.2 1554.5 181 1577.5 246L1563.5 402H-48C-88.8333 290.667 -153.2 65.1 -84 53.5C2.5 39 77 161.5 377 224C677 286.5 744.5 133 1126.5 92Z" fill="#22AE8A"/>
</svg>
