<?xml version="1.0" encoding="UTF-8"?>
<svg id="Capa_2" data-name="Capa 2" xmlns="http://www.w3.org/2000/svg" viewBox="0 0 10690.53 1768.9">
  <defs>
    <style>
      .cls-1 {
        fill: #595955;
      }

      .cls-2 {
        fill: #22ae8a;
      }
    </style>
  </defs>
  <g id="Logo_Color" data-name="Logo Color">
    <g>
      <path class="cls-2" d="M2463.2,224.32h-443.96c-19.27,0-34.96,17.33-34.96,36.63v1277.77c0,19.31,15.69,36.84,34.96,36.84h443.96c372.5,0,677.42-303.15,677.42-677.69s-304.92-673.56-677.42-673.56M2436.02,1392.08h-254.74V407.7h254.74c283.87,0,490.28,206.47,490.28,490.18.03,285.85-206.41,494.2-490.28,494.2"/>
      <path class="cls-2" d="M5211.03,224.32h-123.58c-21.29,0-36.7,17.36-36.7,36.63v912.92h-1.98l-837.67-968.97h-48.27c-19.41,0-36.6,15.59-36.6,34.83v1156.26h-728.48v-277.18h515.28c19.55,0,36.74-15.49,36.74-36.77v-108.07c0-19.3-17.19-36.6-36.74-36.6h-515.28V405.79h609.94c21.18,0,36.81-17.29,36.81-36.56v-108.27c0-19.31-15.63-36.74-36.81-36.74h-771.94c-21.18,0-36.94,17.43-36.94,36.74v1277.77c0,19.31,15.76,36.84,36.94,36.84h1048.65c21.42,0,36.67-17.53,36.67-36.84v-940h1.91l837.81,996.08h50.24c19.31,0,36.6-15.48,36.6-34.93V260.95c0-19.27-17.29-36.63-36.6-36.63"/>
      <path class="cls-2" d="M6448.86,224.21h-127.31c-.1,0-.24.03-.34.03h-969.61c-21.22,0-36.63,17.4-36.63,36.67v108.16c0,19.34,15.42,36.63,36.63,36.63h314.71v1132.94c0,19.31,17.26,36.84,36.6,36.84h127.47c19.31,0,36.61-17.53,36.61-36.84V405.79h417.79v1132.94c0,19.31,17.46,36.84,36.77,36.84h127.31c19.27,0,36.49-17.53,36.49-36.84V260.95c0-19.27-17.23-36.74-36.49-36.74"/>
      <path class="cls-1" d="M7082.33,224.32h-444.16c-19.17,0-34.55,17.33-34.55,36.63v1277.77c0,19.31,15.38,36.84,34.55,36.84h444.16c372.29,0,677.25-303.15,677.25-677.69s-304.96-673.56-677.25-673.56M7055.05,1392.08h-254.57V407.7h254.57c283.87,0,490.42,206.47,490.42,490.18.1,285.85-206.54,494.2-490.42,494.2"/>
      <path class="cls-1" d="M8654.39,224.21h-771.87c-21.31,0-36.84,17.43-36.84,36.74v1277.77c0,19.31,15.52,36.84,36.84,36.84h771.87c21.22,0,36.8-17.53,36.8-36.84v-106.26c0-19.17-15.59-36.5-36.8-36.5h-610.01v-277.15h515.29c19.51,0,36.91-15.49,36.91-36.77v-108.07c0-19.3-17.4-36.63-36.91-36.63h-515.29V405.79h610.01c21.22,0,36.8-17.29,36.8-36.6v-108.23c0-19.27-15.59-36.74-36.8-36.74"/>
      <path class="cls-1" d="M9203.16,797.62c-160.15-65.66-245.19-133.1-245.19-243.21,0-71.4,55.94-173.76,218.04-173.76,112.15,0,247.37,88.79,260.71,96.64,26.95,17.22,52.12,5.73,67.47-19.31,15.45-23.3,32.99-50.18,48.34-73.51,19.41-28.75,3.75-55.87-11.63-65.59-19.37-13.44-164.07-113.86-356.94-113.86-306.86,0-422.7,206.51-422.7,357.14,0,224.04,154.25,326.27,350.97,409.34,191.19,78.93,291.72,152.31,291.72,268.11,0,98.58-84.94,179.42-218.14,179.42-148.62,0-297.25-123.48-308.7-133.03-21.43-17.46-48.37-9.75-65.87,15.36-17.23,25.17-32.79,54.13-49.97,79.14-19.41,32.81-5.83,46.39,11.42,61.74,30.91,28.99,179.5,152.61,415,152.61,250.85,0,430.45-164.28,430.45-364.85,0-235.64-191.02-341.56-414.97-432.36"/>
      <path class="cls-2" d="M10178.4,954.57l-136.79,139.45,417.89,467.97c4,5.7,15.59,13.61,34.86,13.61h154.53c40.52,0,50.1-44.41,34.62-63.68l-505.12-557.34Z"/>
      <path class="cls-1" d="M10338.25,611.89l312.59-318.09c26.85-28.93,7.54-69.55-27.15-69.55h-144.8c-15.38,0-28.93,9.79-36.74,19.31l-544.07,561.87V270.54c0-24.97-21.32-46.32-46.46-46.32h-111.82c-27.08,0-46.36,21.36-46.36,46.32v1258.56c0,24.97,19.27,46.39,46.36,46.39h111.82c25.14,0,46.46-21.43,46.46-46.39v-470.32l439.76-447.57.41.68Z"/>
      <path class="cls-2" d="M661.42,1376.39c-77.06,0-142.44-56.97-153.36-132.96l-114.41-519c-.54-2.87-1.02-5.63-1.23-8.4-4.37-18.99-6.58-38.07-6.58-56.69,0-140.88,114.61-255.46,255.53-255.46,24.19,0,48.13,3.41,71.33,10.13,3.31.58,6.58,1.43,9.79,2.52,31.79,11.09,89.75,27.53,119.73,27.53,22.96,0,61.81-7.41,106.98-20.27,31.51-13.23,64.7-19.92,98.75-19.92,140.88,0,255.5,114.58,255.5,255.46,0,13.44-1.1,27.12-3.35,40.87l.03.41-1.63,9.25-113.52,525.89c-.86,6.48-2.15,13.06-3.96,19.85l-1.19,6.18-1.56,3.37c-21.08,63.07-80.88,106.42-147.16,106.42-74.19,0-138.8-54.13-152.34-126.66-1.44-5.22-2.19-10.53-2.32-15.96l-.03-3.28c-.21-3.03-.38-6.04-.38-9.14,0-1.47.07-2.83.17-4.26-.27-70.58-17.09-95.34-24.66-100.84-14.09,7.78-35.06,38.88-35.06,115.91v9.82l-1.3,3.75c-9.75,76.62-75.76,135.46-153.74,135.46M505.02,710.71l113.15,513.48.34,2.59c2.69,21.59,21.15,37.93,42.91,37.93s41.45-17.63,43.15-40.15l.17-3.07c2.28-196.75,117.58-219.95,135.87-222.37,0,0,3.44-.54,9.62-.54,22.99,0,137.64,10.33,137.64,215.31l-.07,1.81v1.4l.54,5.94c3.17,21.01,21.59,36.84,42.74,36.84,18.53,0,35.24-12.14,41.14-29.78l.51-2.05c.78-2.72,1.23-5.04,1.43-7.06l.96-6.14,113.93-528.08c1.74-9.31,2.65-18.55,2.65-27.43,0-79.27-64.47-143.78-143.78-143.78-19.82,0-39.16,4.09-57.47,12.14l-3.38,1.47-3.58,1.03c-58.68,16.95-106.22,25.55-141.29,25.55-50.21,0-121.09-21.87-148.07-30.84l-1.84.07-7.85-2.77c-13.95-4.44-28.48-6.65-43.08-6.65-79.28,0-143.81,64.51-143.81,143.78,0,11.67,1.57,23.37,4.78,35.82l3.3,12.83-.61,2.73Z"/>
      <path class="cls-2" d="M844.63,1768.9C378.91,1768.9,0,1390,0,924.28h153.67c0,380.95,309.97,690.92,690.96,690.92s690.95-298.5,690.95-679.53h153.71c0,225.16-88.07,435.46-247.99,592.1-158.76,155.48-370.65,241.13-596.67,241.13"/>
      <path class="cls-2" d="M1689.26,844.63h-153.67c0-380.99-309.97-690.93-690.95-690.93S153.71,463.64,153.71,844.63H0C0,378.88,378.88,0,844.63,0s844.62,378.88,844.62,844.63"/>
    </g>
  </g>
</svg>